<?xml version="1.0" encoding="UTF-8" standalone="no"?>
<!-- <svg xmlns="http://www.w3.org/2000/svg" version="1.1" xmlns:xlink="http://www.w3.org/1999/xlink" xmlns:svgjs="http://svgjs.dev/svgjs" width="2000" height="4222" viewBox="0 0 2000 4222"><g transform="matrix(1,0,0,1,1.6761318681316197,1.7093117408903709)"><svg viewBox="0 0 117 247" data-background-color="#ffffff" preserveAspectRatio="xMidYMid meet" height="4222" width="2000" xmlns="http://www.w3.org/2000/svg" xmlns:xlink="http://www.w3.org/1999/xlink"><g id="tight-bounds" transform="matrix(1,0,0,1,-0.09805371428569742,-0.09999999999999432)"><svg viewBox="0 0 117.19610742857142 247.2" height="247.2" width="117.19610742857142"><g><svg></svg></g><g><svg viewBox="0 0 117.19610742857142 247.2" height="247.2" width="117.19610742857142"><g transform="matrix(1,0,0,1,0,47.215199999999996)"><svg viewBox="0 0 117.19610742857142 152.7696" height="152.7696" width="117.19610742857142"><g><svg viewBox="0 0 117.19610742857142 152.7696" height="152.7696" width="117.19610742857142"><g><svg viewBox="0 0 117.19610742857142 152.7696" height="152.7696" width="117.19610742857142"><g><svg viewBox="0 0 117.19610742857142 152.7696" height="152.7696" width="117.19610742857142"><g id="textblocktransform"><svg viewBox="0 0 117.19610742857142 152.7696" height="152.7696" width="117.19610742857142" id="textblock"><g><svg viewBox="0 0 117.19610742857142 152.7696" height="152.7696" width="117.19610742857142"><g transform="matrix(1,0,0,1,0,0)"><svg width="117.19610742857142" viewBox="3.61 -34.18 26.22 34.18" height="152.7696" data-palette-color="url(#f88803d2-0c01-42f2-b510-0c6f155650ec)"></svg></g></svg></g></svg></g></svg></g><g></g></svg></g></svg></g></svg></g><path d="M0 41.215L0 1 117.196 1 117.196 41.215 103.419 41.215 103.419 14.777 13.777 14.777 13.777 41.215 0 41.215M0 205.985L0 246.2 117.196 246.2 117.196 205.985 103.419 205.985 103.419 232.423 13.777 232.423 13.777 205.985 0 205.985" fill="#ffffff" stroke="transparent" data-fill-palette-color="tertiary"></path></svg></g><defs></defs><mask id="e0ed202c-800c-4d2b-9e14-7213df80e09e"><g id="SvgjsG1405"><svg viewBox="0 0 117.19610742857142 247.2" height="247.2" width="117.19610742857142"><g><svg></svg></g><g><svg viewBox="0 0 117.19610742857142 247.2" height="247.2" width="117.19610742857142"><g transform="matrix(1,0,0,1,0,47.215199999999996)"><svg viewBox="0 0 117.19610742857142 152.7696" height="152.7696" width="117.19610742857142"><g><svg viewBox="0 0 117.19610742857142 152.7696" height="152.7696" width="117.19610742857142"><g><svg viewBox="0 0 117.19610742857142 152.7696" height="152.7696" width="117.19610742857142"><g><svg viewBox="0 0 117.19610742857142 152.7696" height="152.7696" width="117.19610742857142"><g id="SvgjsG1404"><svg viewBox="0 0 117.19610742857142 152.7696" height="152.7696" width="117.19610742857142" id="SvgjsSvg1403"><g><svg viewBox="0 0 117.19610742857142 152.7696" height="152.7696" width="117.19610742857142"><g transform="matrix(1,0,0,1,0,0)"><svg width="117.19610742857142" viewBox="3.61 -34.18 26.22 34.18" height="152.7696" data-palette-color="url(#f88803d2-0c01-42f2-b510-0c6f155650ec)"><path d="M14.6-31.15L14.6-31.15 22.36-10.11 22.95-10.11 22.95-30.37Q22.95-32.1 23.55-33.14 24.15-34.18 26.22-34.18L26.22-34.18Q28.54-34.18 29.19-33.18 29.83-32.18 29.83-30.37L29.83-30.37 29.83-5.62Q29.83-4.03 29.65-2.75 29.47-1.46 28.71-0.73 27.95 0 26.22 0L26.22 0 23 0Q21.61 0 20.73-0.66 19.85-1.32 19.34-2.27 18.82-3.22 18.51-4.1L18.51-4.1 11.13-24.07 10.55-24.07 10.55-3.81Q10.55-2.08 9.96-1.04 9.38 0 7.28 0L7.28 0Q4.93 0 4.27-1 3.61-2 3.61-3.81L3.61-3.81 3.61-28.56Q3.61-30.15 3.8-31.42 3.98-32.69 4.76-33.44 5.54-34.18 7.28-34.18L7.28-34.18 10.5-34.18Q11.72-34.18 12.49-33.7 13.26-33.23 13.75-32.67L13.75-32.67Q14.23-32.08 14.6-31.15Z" opacity="1" transform="matrix(1,0,0,1,0,0)" fill="white" class="wordmark-text-0" id="SvgjsPath1402"></path></svg></g></svg></g></svg></g></svg></g><g></g></svg></g></svg></g></svg></g><path d="M0 41.215L0 1 117.196 1 117.196 41.215 103.419 41.215 103.419 14.777 13.777 14.777 13.777 41.215 0 41.215M0 205.985L0 246.2 117.196 246.2 117.196 205.985 103.419 205.985 103.419 232.423 13.777 232.423 13.777 205.985 0 205.985" fill="black" stroke="transparent"></path></svg></g><defs><mask></mask></defs></svg><rect width="117.19610742857142" height="247.2" fill="black" stroke="none" visibility="hidden"></rect></g></mask><linearGradient x1="0" x2="1" y1="0.5" y2="0.5" id="f88803d2-0c01-42f2-b510-0c6f155650ec"><stop stop-color="#f00b51" offset="0"></stop><stop stop-color="#730062" offset="1"></stop></linearGradient><rect width="117.19610742857142" height="247.2" fill="url(#f88803d2-0c01-42f2-b510-0c6f155650ec)" mask="url(#e0ed202c-800c-4d2b-9e14-7213df80e09e)" data-fill-palette-color="primary"></rect></svg><rect width="117.19610742857142" height="247.2" fill="none" stroke="none" visibility="hidden"></rect></g></svg></g></svg> -->

<!-- <svg xmlns="http://www.w3.org/2000/svg" version="1.1" xmlns:xlink="http://www.w3.org/1999/xlink" xmlns:svgjs="http://svgjs.dev/svgjs" width="2000" height="2000" viewBox="0 0 2000 2000"><g transform="matrix(1,0,0,1,-0.28443113772425477,-0.28443113772459583)"><svg viewBox="0 0 334 334" data-background-color="#ffffff" preserveAspectRatio="xMidYMid meet" height="2000" width="2000" xmlns="http://www.w3.org/2000/svg" xmlns:xlink="http://www.w3.org/1999/xlink"><g id="tight-bounds" transform="matrix(1,0,0,1,0.04749999999998522,0.04750000000001364)"><svg viewBox="0 0 333.90454557049503 333.90454557049503" height="333.90454557049503" width="333.90454557049503"><rect width="333.905" height="333.905" fill="url(#c0e909a3-b27c-4e62-a122-26e891ab202d)" mask="url(#e351dd24-15d7-4e0a-a5f5-58ed8641ab03)" data-fill-palette-color="tertiary"></rect><g><svg></svg></g><g><svg viewBox="0 0 333.90454557049503 333.90454557049503" height="333.90454557049503" width="333.90454557049503"><g><path d="M0 166.952c0-92.205 74.747-166.952 166.952-166.952 92.205 0 166.952 74.747 166.953 166.952 0 92.205-74.747 166.952-166.953 166.953-92.205 0-166.952-74.747-166.952-166.953zM166.952 316.63c82.665 0 149.677-67.013 149.678-149.678 0-82.665-67.013-149.677-149.678-149.677-82.665 0-149.677 67.013-149.677 149.677 0 82.665 67.013 149.677 149.677 149.678z" data-fill-palette-color="tertiary" fill="url(#c0e909a3-b27c-4e62-a122-26e891ab202d)" stroke="transparent"></path><ellipse rx="160.27418187383762" ry="160.27418187383762" cx="166.95227278524752" cy="166.95227278524752" fill="url(#c0e909a3-b27c-4e62-a122-26e891ab202d)" stroke="transparent" stroke-width="0" fill-opacity="1" data-fill-palette-color="tertiary"></ellipse></g><g transform="matrix(1,0,0,1,93.47592782883082,71.17305217166896)"><svg viewBox="0 0 146.9526899128334 191.55844122715712" height="191.55844122715712" width="146.9526899128334"><g><svg viewBox="0 0 146.9526899128334 191.55844122715712" height="191.55844122715712" width="146.9526899128334"><g><svg viewBox="0 0 146.9526899128334 191.55844122715712" height="191.55844122715712" width="146.9526899128334"><g><svg viewBox="0 0 146.9526899128334 191.55844122715712" height="191.55844122715712" width="146.9526899128334"><g id="textblocktransform"><svg viewBox="0 0 146.9526899128334 191.55844122715712" height="191.55844122715712" width="146.9526899128334" id="textblock"><g><svg viewBox="0 0 146.9526899128334 191.55844122715712" height="191.55844122715712" width="146.9526899128334"><g transform="matrix(1,0,0,1,0,0)"><svg width="146.9526899128334" viewBox="3.61 -34.18 26.22 34.18" height="191.55844122715712" data-palette-color="#ffffff"><path d="M14.6-31.15L14.6-31.15 22.36-10.11 22.95-10.11 22.95-30.37Q22.95-32.1 23.55-33.14 24.15-34.18 26.22-34.18L26.22-34.18Q28.54-34.18 29.19-33.18 29.83-32.18 29.83-30.37L29.83-30.37 29.83-5.62Q29.83-4.03 29.65-2.75 29.47-1.46 28.71-0.73 27.95 0 26.22 0L26.22 0 23 0Q21.61 0 20.73-0.66 19.85-1.32 19.34-2.27 18.82-3.22 18.51-4.1L18.51-4.1 11.13-24.07 10.55-24.07 10.55-3.81Q10.55-2.08 9.96-1.04 9.38 0 7.28 0L7.28 0Q4.93 0 4.27-1 3.61-2 3.61-3.81L3.61-3.81 3.61-28.56Q3.61-30.15 3.8-31.42 3.98-32.69 4.76-33.44 5.54-34.18 7.28-34.18L7.28-34.18 10.5-34.18Q11.72-34.18 12.49-33.7 13.26-33.23 13.75-32.67L13.75-32.67Q14.23-32.08 14.6-31.15Z" opacity="1" transform="matrix(1,0,0,1,0,0)" fill="#ffffff" class="wordmark-text-0" data-fill-palette-color="quaternary" id="text-0"></path></svg></g></svg></g></svg></g></svg></g><g></g></svg></g></svg></g></svg></g></svg></g><defs></defs><mask id="e351dd24-15d7-4e0a-a5f5-58ed8641ab03"><g id="SvgjsG3041"><svg viewBox="0 0 333.90454557049503 333.90454557049503" height="333.90454557049503" width="333.90454557049503"><g><svg></svg></g><g><svg viewBox="0 0 333.90454557049503 333.90454557049503" height="333.90454557049503" width="333.90454557049503"><g><path d="M0 166.952c0-92.205 74.747-166.952 166.952-166.952 92.205 0 166.952 74.747 166.953 166.952 0 92.205-74.747 166.952-166.953 166.953-92.205 0-166.952-74.747-166.952-166.953zM166.952 316.63c82.665 0 149.677-67.013 149.678-149.678 0-82.665-67.013-149.677-149.678-149.677-82.665 0-149.677 67.013-149.677 149.677 0 82.665 67.013 149.677 149.677 149.678z" fill="white" stroke="transparent"></path><ellipse rx="160.27418187383762" ry="160.27418187383762" cx="166.95227278524752" cy="166.95227278524752" fill="white" stroke="transparent" stroke-width="0" fill-opacity="1"></ellipse></g><g transform="matrix(1,0,0,1,93.47592782883082,71.17305217166896)"><svg viewBox="0 0 146.9526899128334 191.55844122715712" height="191.55844122715712" width="146.9526899128334"><g><svg viewBox="0 0 146.9526899128334 191.55844122715712" height="191.55844122715712" width="146.9526899128334"><g><svg viewBox="0 0 146.9526899128334 191.55844122715712" height="191.55844122715712" width="146.9526899128334"><g><svg viewBox="0 0 146.9526899128334 191.55844122715712" height="191.55844122715712" width="146.9526899128334"><g id="SvgjsG3040"><svg viewBox="0 0 146.9526899128334 191.55844122715712" height="191.55844122715712" width="146.9526899128334" id="SvgjsSvg3039"><g><svg viewBox="0 0 146.9526899128334 191.55844122715712" height="191.55844122715712" width="146.9526899128334"><g transform="matrix(1,0,0,1,0,0)"><svg width="146.9526899128334" viewBox="3.61 -34.18 26.22 34.18" height="191.55844122715712" data-palette-color="#ffffff"><path d="M14.6-31.15L14.6-31.15 22.36-10.11 22.95-10.11 22.95-30.37Q22.95-32.1 23.55-33.14 24.15-34.18 26.22-34.18L26.22-34.18Q28.54-34.18 29.19-33.18 29.83-32.18 29.83-30.37L29.83-30.37 29.83-5.62Q29.83-4.03 29.65-2.75 29.47-1.46 28.71-0.73 27.95 0 26.22 0L26.22 0 23 0Q21.61 0 20.73-0.66 19.85-1.32 19.34-2.27 18.82-3.22 18.51-4.1L18.51-4.1 11.13-24.07 10.55-24.07 10.55-3.81Q10.55-2.08 9.96-1.04 9.38 0 7.28 0L7.28 0Q4.93 0 4.27-1 3.61-2 3.61-3.81L3.61-3.81 3.61-28.56Q3.61-30.15 3.8-31.42 3.98-32.69 4.76-33.44 5.54-34.18 7.28-34.18L7.28-34.18 10.5-34.18Q11.72-34.18 12.49-33.7 13.26-33.23 13.75-32.67L13.75-32.67Q14.23-32.08 14.6-31.15Z" opacity="1" transform="matrix(1,0,0,1,0,0)" fill="black" class="wordmark-text-0" id="SvgjsPath3038"></path></svg></g></svg></g></svg></g></svg></g><g></g></svg></g></svg></g></svg></g></svg></g><defs><mask></mask></defs></svg><rect width="333.90454557049503" height="333.90454557049503" fill="black" stroke="none" visibility="hidden"></rect></g></mask><linearGradient x1="0" x2="1" y1="0.5" y2="0.5" id="c0e909a3-b27c-4e62-a122-26e891ab202d"><stop stop-color="#f00b51" offset="0"></stop><stop stop-color="#730062" offset="1"></stop></linearGradient></svg><rect width="333.90454557049503" height="333.90454557049503" fill="none" stroke="none" visibility="hidden"></rect></g></svg></g></svg> -->

<svg xmlns="http://www.w3.org/2000/svg" version="1.1" xmlns:xlink="http://www.w3.org/1999/xlink" xmlns:svgjs="http://svgjs.dev/svgjs" width="2000" height="2292" viewBox="0 0 2000 2292"><g transform="matrix(1,0,0,1,0.31839885222382236,-3.2429361702122605)"><svg viewBox="0 0 123 141" data-background-color="#000000" preserveAspectRatio="xMidYMid meet" height="2292" width="2000" xmlns="http://www.w3.org/2000/svg" xmlns:xlink="http://www.w3.org/1999/xlink"><g id="tight-bounds" transform="matrix(1,0,0,1,-0.019581529411766496,0.19949999999997203)"><svg viewBox="0 0 123.03916305882355 140.60052000000002" height="140.60052000000002" width="123.03916305882355"><rect width="123.03916305882355" height="140.601" fill="url(#c0902879-ff81-46db-a926-016fbe1416d3)" mask="url(#7365955f-ea8c-4550-98c8-9da9a25dbf48)" data-fill-palette-color="tertiary"></rect><g><svg viewBox="0 0 123.03916305882355 140.60052000000002" height="140.60052000000002" width="123.03916305882355"><g><svg viewBox="0 0 123.03916305882355 140.60052000000002" height="140.60052000000002" width="123.03916305882355"><g><path d="M0 140.601v-140.601h123.039v140.601z" fill="url(#c0902879-ff81-46db-a926-016fbe1416d3)" stroke="transparent" stroke-width="0" rx="0%" data-fill-palette-color="tertiary"></path><path d="M3.283 137.317v-134.034h116.473v134.034z" fill="#ffffff" stroke="transparent" stroke-width="0" rx="0%" data-fill-palette-color="quaternary"></path><path d="M9.85 130.751v-120.901h103.339v120.901z" fill="url(#c0902879-ff81-46db-a926-016fbe1416d3)" stroke="transparent" stroke-width="0" data-fill-palette-color="tertiary"></path></g><g transform="matrix(1,0,0,1,19.69974,19.69974)" id="textblocktransform"><svg viewBox="0 0 83.63968305882355 101.20104000000002" height="101.20104000000002" width="83.63968305882355" id="textblock"><g><svg viewBox="0 0 83.63968305882355 101.20104000000002" height="101.20104000000002" width="83.63968305882355"><g transform="matrix(1,0,0,1,0,0)"><svg width="83.63968305882355" viewBox="4 -33.25 28.1 34" height="101.20104000000002" data-palette-color="#ffffff"><path d="M29.95 0L25.45 0.75 9.25-26.05 8.85-26.05 9 0 4 0.25 5.35-32.5 17.45-33.25 26.2-8.3 26.6-8.3 27.1-32.75 32.1-33 29.95 0Z" opacity="1" transform="matrix(1,0,0,1,0,0)" fill="#ffffff" class="wordmark-text-0" data-fill-palette-color="quaternary" id="text-0"></path></svg></g></svg></g></svg></g></svg></g><g></g></svg></g><defs></defs><mask id="7365955f-ea8c-4550-98c8-9da9a25dbf48"><g id="SvgjsG3387"><svg viewBox="0 0 123.03916305882355 140.60052000000002" height="140.60052000000002" width="123.03916305882355"><g><svg viewBox="0 0 123.03916305882355 140.60052000000002" height="140.60052000000002" width="123.03916305882355"><g><svg viewBox="0 0 123.03916305882355 140.60052000000002" height="140.60052000000002" width="123.03916305882355"><g><path d="M0 140.601v-140.601h123.039v140.601z" fill="white" stroke="transparent" stroke-width="0" rx="0%"></path><path d="M3.283 137.317v-134.034h116.473v134.034z" fill="black" stroke="transparent" stroke-width="0" rx="0%"></path><path d="M9.85 130.751v-120.901h103.339v120.901z" fill="white" stroke="transparent" stroke-width="0"></path></g><g transform="matrix(1,0,0,1,19.69974,19.69974)" id="SvgjsG3386"><svg viewBox="0 0 83.63968305882355 101.20104000000002" height="101.20104000000002" width="83.63968305882355" id="SvgjsSvg3385"><g><svg viewBox="0 0 83.63968305882355 101.20104000000002" height="101.20104000000002" width="83.63968305882355"><g transform="matrix(1,0,0,1,0,0)"><svg width="83.63968305882355" viewBox="4 -33.25 28.1 34" height="101.20104000000002" data-palette-color="#ffffff"><path d="M29.95 0L25.45 0.75 9.25-26.05 8.85-26.05 9 0 4 0.25 5.35-32.5 17.45-33.25 26.2-8.3 26.6-8.3 27.1-32.75 32.1-33 29.95 0Z" opacity="1" transform="matrix(1,0,0,1,0,0)" fill="black" class="wordmark-text-0" id="SvgjsPath3384"></path></svg></g></svg></g></svg></g></svg></g><g></g></svg></g><defs><mask></mask></defs></svg><rect width="123.03916305882355" height="140.60052000000002" fill="black" stroke="none" visibility="hidden"></rect></g></mask><linearGradient x1="0" x2="1" y1="0.5" y2="0.5" id="c0902879-ff81-46db-a926-016fbe1416d3"><stop stop-color="#f00b51" offset="0"></stop><stop stop-color="#730062" offset="1"></stop></linearGradient></svg><rect width="123.03916305882355" height="140.60052000000002" fill="none" stroke="none" visibility="hidden"></rect></g></svg></g></svg>